<svg width="34" height="40" viewBox="0 0 34 40" fill="none" xmlns="http://www.w3.org/2000/svg">
<g clip-path="url(#clip0_18_154567)">
<path d="M33.034 11.6153C32.5173 11.8948 32.0098 12.1877 31.4851 12.4475C30.9789 12.698 30.4626 12.933 29.9365 13.1404C29.4133 13.3468 28.8725 13.5106 28.3395 13.6931C31.4663 11.9206 33.2314 9.58523 32.799 7.57652C31.4411 8.98319 30.0263 10.2804 28.4935 11.1462C29.2793 10.121 30.2406 9.0276 31.0106 7.81813C31.8083 6.56501 32.227 5.16803 31.7687 3.48394C30.5698 5.4862 29.3242 7.25416 27.6879 8.71921C29.4455 6.06276 30.946 3.36427 29.9097 0.0157719C28.2625 4.22652 22.0717 10.7416 22.0717 10.7416C22.0717 10.7416 23.2436 10.9606 23.5224 11.1367C23.6228 11.2001 23.6009 11.5451 23.6009 11.5451L23.5963 14.0544C23.5963 14.0544 23.6197 17.9668 23.6197 18.4341C23.6197 19.2814 23.3367 20.9392 22.6573 22.0628C22.1433 22.9129 21.3955 23.5761 20.6523 24.076C21.2309 24.4077 22.0209 24.3837 22.3573 24.5381C22.3729 23.9471 22.3883 23.3638 22.4066 22.6685C22.8069 23.481 22.6877 24.4262 23.7431 24.9961C23.6224 24.3534 23.5372 23.8997 23.452 23.446C23.3682 23.0001 23.2844 22.5542 23.2008 22.1082C23.9839 24.0117 24.3768 24.9011 25.2169 24.7168C24.9068 23.8625 24.5974 23.0108 24.2242 21.983C26.1229 24.397 26.1229 24.397 26.8903 24.1256C26.3506 23.2608 25.8136 22.4005 25.2765 21.5401C27.235 23.303 27.7869 23.5505 28.5574 22.9004C27.7411 22.091 26.9244 21.2814 26.1079 20.4717C28.5556 21.8907 29.451 22.0349 30.1873 21.0263C29.6441 20.7439 29.0973 20.4731 28.5641 20.1788C28.0503 19.8952 27.5506 19.5875 27.0447 19.2905C29.9915 20.0119 31.0892 19.8408 31.6281 18.496C31.0003 18.393 30.3727 18.3053 29.7523 18.1836C29.1582 18.0673 28.5714 17.9156 27.9812 17.7793C28.6465 17.6286 29.2985 17.6725 29.9078 17.5353C30.5154 17.3985 31.1197 17.143 31.6524 16.8233C32.1806 16.5063 32.5773 16.0207 32.6551 15.396C31.1271 15.5667 29.6628 15.7304 28.1986 15.8939C31.543 14.7678 33.3092 13.264 33.034 11.6153Z" fill="#2E3080"/>
<path d="M0.582633 11.6153C1.09951 11.8948 1.60692 12.1877 2.13162 12.4475C2.63782 12.698 3.15415 12.933 3.68017 13.1404C4.20333 13.3468 4.74412 13.5106 5.27719 13.6931C2.15046 11.9206 0.385222 9.58523 0.817719 7.57652C2.17569 8.98319 3.5905 10.2804 5.1233 11.1462C4.3374 10.121 3.37602 9.0276 2.60609 7.81813C1.80841 6.56501 1.38968 5.16803 1.84807 3.48394C3.04685 5.4862 4.29246 7.25416 5.92881 8.71921C4.17117 6.06276 2.67065 3.36427 3.70705 0.0157719C5.35431 4.22652 11.545 10.7416 11.545 10.7416C11.545 10.7416 10.3731 10.9606 10.0944 11.1367C9.9939 11.2001 10.0158 11.5451 10.0158 11.5451L10.0204 14.0544C10.0204 14.0544 9.99699 17.9668 9.99699 18.4341C9.99699 19.2814 10.2801 20.9392 10.9595 22.0628C11.4734 22.9129 12.2213 23.5761 12.9644 24.076C12.3859 24.4077 11.5959 24.3837 11.2594 24.5381C11.2438 23.9471 11.2284 23.3638 11.2101 22.6685C10.8099 23.481 10.9291 24.4262 9.87371 24.9961C9.99434 24.3534 10.0795 23.8997 10.1648 23.446C10.2485 23.0001 10.3322 22.5542 10.4159 22.1082C9.6329 24.0117 9.23995 24.9011 8.39974 24.7168C8.70996 23.8625 9.01929 23.0108 9.39252 21.983C7.49377 24.397 7.49377 24.397 6.72649 24.1256C7.26617 23.2608 7.80321 22.4005 8.34026 21.5401C6.38168 23.303 5.82988 23.5505 5.05929 22.9004C5.87571 22.091 6.69223 21.2814 7.50875 20.4717C5.06106 21.8907 4.16566 22.0349 3.42944 21.0263C3.97265 20.7439 4.51939 20.4731 5.05257 20.1788C5.56637 19.8952 6.06607 19.5875 6.57193 19.2905C3.6252 20.0119 2.52755 19.8408 1.98852 18.496C2.61645 18.393 3.24393 18.3053 3.86436 18.1836C4.45847 18.0673 5.0453 17.9156 5.63544 17.7793C4.97017 17.6286 4.31812 17.6725 3.70893 17.5353C3.10127 17.3985 2.49692 17.143 1.96418 16.8233C1.43606 16.5063 1.03937 16.0207 0.961701 15.396C2.48965 15.5667 3.95382 15.7304 5.41809 15.8939C2.07368 14.7678 0.307558 13.264 0.582633 11.6153Z" fill="#2E3080"/>
<path d="M18.9116 13.3317C18.9117 13.3172 18.9118 13.3028 18.9119 13.2884C18.8739 13.2605 18.839 13.2157 18.7974 13.2086C18.7347 13.1981 18.6891 13.2411 18.6882 13.3067C18.6873 13.3725 18.7303 13.4161 18.795 13.4055C18.8369 13.3986 18.8729 13.3574 18.9116 13.3317ZM18.0307 13.184C18.0676 13.4854 18.2323 13.6932 18.4728 13.7469C18.7565 13.8101 18.9684 13.6306 18.9756 13.4603C18.8367 13.5916 18.6741 13.6527 18.4933 13.5813C18.302 13.5058 18.274 13.3332 18.283 13.1437C18.194 13.1579 18.1152 13.1704 18.0307 13.184ZM18.9041 15.9588C19.2184 15.9219 19.5239 15.9553 19.8057 16.0915C19.9346 16.1538 20.0259 16.1365 20.1475 16.0787C20.7396 15.7971 21.3509 15.6158 22.0213 15.8033C21.9433 15.7489 21.8639 15.6957 21.7777 15.6577C21.5715 15.567 21.35 15.538 21.1264 15.528C20.6588 15.5073 20.199 15.5655 19.7445 15.6697C19.4544 15.7362 19.1694 15.8176 18.9041 15.9588ZM20.477 13.5088C20.5219 13.4157 20.5718 13.3375 20.5985 13.2524C20.6538 13.0751 20.577 12.9218 20.3938 12.8805C20.2696 12.8527 20.1343 12.8683 20.0042 12.8723C19.9785 12.8731 19.945 12.905 19.9304 12.9308C19.8659 13.0441 19.7799 13.1384 19.6613 13.1937C19.5522 13.2444 19.5007 13.307 19.4819 13.4337C19.4601 13.5814 19.3828 13.722 19.3233 13.8633C19.3 13.9189 19.2975 13.9554 19.3368 14.011C19.512 14.2587 19.6064 14.5357 19.6112 14.8384C19.6124 14.9194 19.5917 14.996 19.523 15.0732C19.5013 14.7018 19.4773 14.5863 19.4063 14.5006C19.4035 14.7638 19.3087 14.9966 19.151 15.201C18.9982 15.3993 18.8275 15.5845 18.6738 15.7648C19.1444 15.5481 19.655 15.407 20.1853 15.3268C20.06 15.3142 19.9349 15.3015 19.8097 15.2888C19.8092 15.2763 19.8086 15.2637 19.8081 15.2512C19.9141 15.2372 20.0204 15.21 20.126 15.2119C20.4714 15.2184 20.8175 15.2243 21.1615 15.2519C21.4395 15.2742 21.7175 15.3204 21.976 15.4325C22.2704 15.5601 22.4009 15.8047 22.3374 16.1141C22.3098 16.2493 22.2616 16.3803 22.2216 16.5171C22.4278 16.3951 22.6074 16.2475 22.7536 16.0645C23.2105 15.4929 23.3788 14.8287 23.3833 14.1195C23.3868 13.537 23.0034 13.1196 22.4085 13.0585C21.8883 13.0052 21.3661 13.0244 20.846 13.0771C20.8216 13.0796 20.7906 13.1096 20.7797 13.134C20.7134 13.2824 20.611 13.4004 20.477 13.5088ZM24.3753 11.0919C24.3395 11.0882 24.3243 11.0861 24.309 11.0852C23.8418 11.055 23.3742 11.0302 22.9075 10.9938C21.9892 10.9219 21.0796 10.7919 20.1815 10.5884C19.031 10.3275 17.9308 9.94183 16.9151 9.34366C16.889 9.32829 16.8359 9.33054 16.809 9.34645C15.6933 10.0033 14.479 10.4022 13.2111 10.6612C12.0707 10.8943 10.9157 11.0115 9.75326 11.0684C9.62536 11.0746 9.49757 11.0833 9.36857 11.091C9.36571 11.1122 9.36262 11.127 9.36196 11.1419C9.33949 11.6262 9.30688 12.1104 9.29697 12.595C9.27405 13.7066 9.31724 14.8162 9.41726 15.9241C9.49735 16.8105 9.61688 17.6911 9.81837 18.5597C9.85813 18.7309 9.90561 18.9002 9.95254 19.0822C10.2906 18.8115 10.5584 18.5054 10.779 18.159C11.1037 17.6491 11.3083 17.0901 11.4769 16.5174C11.5832 16.1565 11.7297 15.8186 12.0066 15.5474C12.0092 15.5449 12.0053 15.5363 12.0029 15.5216C11.9259 15.5258 11.8478 15.5276 11.7702 15.5348C11.5393 15.5561 11.3108 15.5505 11.092 15.4675C11.0257 15.4425 10.9667 15.3996 10.8884 15.356C10.9329 15.3391 10.9501 15.3313 10.968 15.326C11.5934 15.1409 12.1577 14.8437 12.644 14.4187C12.981 14.1243 13.2977 13.8079 13.6223 13.5C14.0326 13.1109 14.4691 12.7576 15.0066 12.5453C15.1412 12.492 15.2816 12.4529 15.4253 12.4054C15.3009 12.2994 15.1494 12.3029 14.9878 12.2788C15.0427 12.2519 15.0806 12.2322 15.1196 12.2145C15.6884 11.9571 16.2771 11.7722 16.9109 11.7639C17.096 11.7614 17.2813 11.7785 17.4666 11.7838C17.5033 11.7848 17.5404 11.7728 17.5773 11.7668C17.5794 11.7569 17.5816 11.7469 17.5837 11.737C17.4926 11.6757 17.4014 11.6145 17.2896 11.5394C17.3708 11.5347 17.4288 11.5289 17.487 11.5286C18.0216 11.5252 18.5441 11.6069 19.059 11.7427C19.4209 11.8383 19.7763 11.9488 20.0814 12.1726C20.2367 12.2865 20.3716 12.4162 20.437 12.6025C20.4459 12.6277 20.4813 12.6484 20.5091 12.6623C20.6258 12.721 20.7439 12.7772 20.8626 12.8323C20.8864 12.8432 20.9156 12.852 20.9409 12.8495C21.0565 12.8379 21.1714 12.8202 21.2868 12.8075C21.7029 12.7618 22.1193 12.7279 22.5363 12.798C23.0009 12.8761 23.3558 13.0957 23.5333 13.5412C23.6356 13.7975 23.6396 14.0629 23.6035 14.3301C23.5346 14.8405 23.3429 15.3103 23.116 15.772C22.8487 16.3163 22.3793 16.6377 21.8632 16.9206C21.8973 16.8156 21.9376 16.7163 21.9614 16.6136C22.0439 16.2561 21.8385 15.9961 21.4647 15.9833C21.0097 15.9677 20.6084 16.1162 20.2433 16.3725C20.1981 16.4044 20.1908 16.4343 20.2115 16.4879C20.2875 16.6856 20.3672 16.8831 20.4253 17.0861C20.6085 17.7247 20.9826 18.2253 21.5417 18.5979C21.9363 18.8608 22.368 19.05 22.8162 19.205C23.09 19.2998 23.3674 19.3846 23.6607 19.4796C23.7421 19.1822 23.8274 18.901 23.8957 18.6158C24.1832 17.4174 24.3219 16.1985 24.3798 14.9722C24.4198 14.1234 24.4215 13.2728 24.4243 12.423C24.4259 11.9817 24.3929 11.5405 24.3753 11.0919ZM16.8751 27.6074C16.8689 27.6074 16.8626 27.6074 16.8563 27.6074C16.5828 27.3591 16.3173 27.1015 16.0339 26.8644C15.2823 26.2357 14.5206 25.6184 13.7671 24.9919C12.839 24.2201 11.9647 23.3967 11.2403 22.433C10.5541 21.52 10.0044 20.5351 9.64089 19.4579C9.32219 18.5139 9.16587 17.5357 9.04778 16.552C8.93123 15.5827 8.8659 14.6095 8.84905 13.6333C8.8485 13.6003 8.84045 13.5674 8.83594 13.5344C8.83594 13.0494 8.83594 12.5643 8.83594 12.0793C8.84233 11.9604 8.84916 11.8417 8.85511 11.723C8.8724 11.3714 8.88937 11.0198 8.90644 10.667C8.932 10.6636 8.9439 10.6612 8.95602 10.6603C9.55783 10.6182 10.1604 10.5839 10.7615 10.5324C11.6694 10.4546 12.5681 10.3142 13.4548 10.1067C14.6334 9.83087 15.7616 9.42904 16.8018 8.81215C16.8545 8.78086 16.8874 8.79162 16.9362 8.81657C17.3279 9.0171 17.713 9.23248 18.1163 9.40818C19.3467 9.94431 20.648 10.234 21.9759 10.4195C22.8289 10.5386 23.6866 10.6102 24.5474 10.6468C24.6374 10.6507 24.7269 10.6595 24.8284 10.6668C24.849 11.1951 24.8773 11.716 24.888 12.2373C24.9105 13.3273 24.8726 14.4159 24.7847 15.5029C24.7098 16.4266 24.5891 17.3436 24.4088 18.254C24.0713 19.9568 23.2934 21.4534 22.1971 22.8024C21.5497 23.599 20.7969 24.2957 20.0068 24.9544C19.1725 25.6498 18.3323 26.3383 17.4991 27.0349C17.2826 27.2159 17.0827 27.416 16.8751 27.6074Z" fill="#EC1C2C"/>
<path d="M18.2886 12.0214C18.1778 11.9318 18.068 11.8431 17.9583 11.7542C17.9628 11.7444 17.9673 11.7347 17.9718 11.7248C18.0892 11.7446 18.2078 11.7598 18.3241 11.7848C18.6886 11.8626 19.0547 11.9351 19.4153 12.0278C19.6323 12.0835 19.8265 12.1951 19.985 12.3565C20.0025 12.3742 20.0198 12.3921 20.0359 12.4108C20.1781 12.5752 20.1709 12.6149 19.9714 12.7293C19.812 12.5319 19.626 12.368 19.3435 12.3508C19.3715 12.3694 19.402 12.3851 19.4269 12.407C19.5288 12.4972 19.6303 12.588 19.7293 12.6811C19.7802 12.7291 19.7833 12.7807 19.7473 12.846C19.6188 13.0781 19.4146 13.1637 19.1527 13.0782C18.9652 13.017 18.7819 12.9433 18.5948 12.8813C18.494 12.8479 18.3895 12.8233 18.2851 12.8029C18.2332 12.7928 18.1777 12.8011 18.1213 12.8196C18.2336 12.8492 18.3458 12.8787 18.4581 12.9082C18.1335 12.8706 17.8128 12.8609 17.4941 12.9292C17.4932 12.9401 17.4922 12.9512 17.4913 12.9622C17.5964 12.975 17.7016 12.9879 17.8067 13.0007C17.3927 13.1478 16.9844 13.3006 16.6754 13.629C16.7301 13.6022 16.7839 13.5738 16.8394 13.5489C17.0635 13.4481 17.2947 13.395 17.5436 13.44C17.6936 13.4672 17.8319 13.5234 17.9328 13.6312C18.2089 13.9263 18.5341 13.9392 18.8906 13.814C18.917 13.8047 18.9446 13.7985 18.9717 13.7914C18.9742 13.7908 18.9774 13.7937 18.9802 13.795C18.85 14.0035 18.4642 14.0894 18.0509 14.0019C18.1254 14.0831 18.1254 14.083 18.6903 14.1382C18.3449 14.2477 18.0034 14.2825 17.6718 14.08C17.7271 14.1755 17.8139 14.2311 17.9124 14.2672C18.21 14.3764 18.5052 14.3406 18.7976 14.2444C18.8717 14.22 18.9438 14.1895 19.0416 14.1525C19.0675 14.2413 19.1072 14.3285 19.1163 14.4186C19.1471 14.7293 19.0297 15.0036 18.8701 15.2621C18.6567 15.6077 18.3565 15.8795 18.064 16.159C17.8288 16.3838 17.608 16.6232 17.3819 16.8569C17.3618 16.8777 17.3494 16.9054 17.339 16.9363C17.6542 16.7411 17.9716 16.5548 18.3236 16.4326C17.8818 16.7242 17.5121 17.0884 17.1711 17.4849C16.6637 18.0749 16.4998 18.7543 16.5964 19.5062C16.6014 19.5453 16.6081 19.5844 16.6145 19.6235C16.6147 19.6252 16.6186 19.6264 16.6203 19.6276C16.8705 18.3339 17.6572 17.4485 18.8388 16.8436C18.6785 16.9976 18.5166 17.1305 18.3838 17.2869C18.2483 17.4466 18.1286 17.6224 18.0257 17.804C17.9229 17.9856 17.8358 18.1784 17.7671 18.3748C17.6985 18.5712 17.6462 18.7758 17.6144 18.981C17.5827 19.1863 17.5705 19.3969 17.577 19.6044C17.5835 19.809 17.6241 20.0124 17.6632 20.2147C17.7502 19.2038 17.9678 18.2546 18.8207 17.5671C18.503 18.0899 18.3692 18.6579 18.3808 19.2611C18.3923 19.8547 18.5205 20.4211 18.8035 20.9533C18.8089 20.509 18.8389 20.0712 18.9659 19.6448C19.0934 19.2168 19.3032 18.8343 19.623 18.5069C20.1487 18.7947 20.503 19.2187 20.7126 19.7668C20.7721 19.5464 20.7828 19.3272 20.7462 19.1094C20.7104 18.8965 20.6578 18.6864 20.6094 18.4607C21.069 18.9239 21.3598 19.4735 21.5853 20.0943C21.7764 19.7548 21.7225 19.4144 21.6974 19.0755C22.2786 19.3772 22.8983 19.586 23.5206 19.7864C23.4724 19.9553 23.4724 19.9536 23.3072 19.956C23.0139 19.96 22.7211 19.9561 22.4391 19.8672C22.3058 19.8253 22.178 19.7668 22.0532 19.718C22.2157 20.3526 22.162 20.9623 21.7893 21.5423C21.7329 21.3201 21.6896 21.1141 21.6269 20.9139C21.5638 20.7128 21.4871 20.5147 21.317 20.3636C21.441 20.8421 21.5064 21.3192 21.3236 21.7955C21.1411 22.2712 20.7844 22.6053 20.3939 22.8925C20.4301 22.6926 20.4804 22.4871 20.5021 22.2789C20.5378 21.9342 20.4502 21.6087 20.2977 21.2991C20.2555 21.2135 20.2102 21.129 20.1611 21.047C20.1437 21.0179 20.1107 20.9975 20.0845 20.9735C20.0735 20.9635 20.0586 20.9534 20.0517 20.9451C19.9676 20.8466 19.8773 20.6528 19.8621 20.4671C19.6554 20.5914 19.4239 20.9547 19.4239 20.9547C19.4239 20.9547 19.3513 21.1376 19.3362 21.201C19.2608 21.5146 19.2282 22.0346 19.2911 22.4885C19.1958 22.4303 19.1153 22.3922 19.0483 22.3381C18.8154 22.1498 18.6674 21.9003 18.5376 21.6391C18.5088 21.5811 18.4833 21.5217 18.4578 21.4622C18.4323 21.4021 18.3103 21.0966 18.2816 20.9691C18.2515 20.8352 18.2441 20.6231 18.2224 20.424C18.1542 20.5254 18.0956 20.61 18.0398 20.6963C18.0078 20.7454 17.9797 20.797 17.9504 20.8479C17.9132 20.9124 17.8754 21.0066 17.8484 21.0586C17.7779 21.195 17.632 21.4681 17.5329 21.5864C17.4579 21.676 17.2978 21.7996 17.1857 21.9013C17.1752 21.8969 17.1646 21.8924 17.1542 21.888C17.2322 21.5569 17.2973 21.2256 17.194 20.8868C17.1882 20.915 17.1824 20.9431 17.1768 20.9711C17.1119 21.2978 17.0158 21.6146 16.8604 21.912C16.7252 22.1708 16.514 22.3617 16.2729 22.5233C15.9257 22.756 15.5418 22.914 15.1237 23.0283C15.1835 22.9348 15.2359 22.8356 15.3046 22.7486C15.5186 22.4769 15.6749 22.1801 15.7442 21.8422C15.8278 21.4344 15.8219 21.0243 15.773 20.614C15.7512 20.4314 15.7188 20.2499 15.6903 20.068C15.6857 20.0383 15.6768 20.0092 15.6653 19.9603C15.1319 20.4446 14.6816 20.954 14.6423 21.72C14.5994 21.6651 14.5627 21.6254 14.5345 21.5806C14.3912 21.3524 14.3396 21.0966 14.3128 20.8361C14.262 20.3439 14.2954 19.8557 14.403 19.3723C14.4074 19.3525 14.4065 19.3315 14.394 19.3033C14.0717 19.6249 13.8274 19.9996 13.629 20.401C13.4233 20.8169 13.4459 21.2638 13.4796 21.7125C12.7981 21.1662 12.7325 20.4475 12.8801 19.6524C12.7083 19.8467 12.5824 20.0558 12.5664 20.3017C12.5507 20.5408 12.575 20.7824 12.5817 21.0253C12.5073 21.0099 12.4485 20.9412 12.4169 20.8661C12.3362 20.6741 12.2547 20.4804 12.2021 20.2801C12.1156 19.9518 12.0938 19.6148 12.1303 19.2583C11.5661 19.6226 10.9687 19.8864 10.3254 20.0901C10.2403 19.8768 10.1547 19.6671 10.0753 19.4552C10.0684 19.4371 10.0964 19.3972 10.1183 19.3797C10.5326 19.0478 10.8926 18.6707 11.1586 18.2128C11.3772 17.8366 11.5109 17.4292 11.6282 17.0152C11.6944 16.7821 11.7656 16.5503 11.8336 16.3177C11.9643 15.8703 12.2401 15.528 12.6305 15.2687C12.7184 15.2104 12.8071 15.1528 12.8906 15.078C12.7466 15.1161 12.6028 15.1551 12.4586 15.1922C12.313 15.2296 12.1682 15.2722 12.0205 15.2993C11.8722 15.3265 11.7208 15.3372 11.5707 15.3551C11.569 15.3464 11.5673 15.3377 11.5655 15.329C11.6585 15.281 11.7523 15.2346 11.8444 15.185C12.4321 14.8689 12.92 14.4328 13.3862 13.9691C13.6525 13.7041 13.9233 13.4426 14.2058 13.1943C14.6628 12.7926 15.2155 12.5723 15.8049 12.4293C15.9595 12.3918 16.1138 12.3531 16.2674 12.2975C16.0386 12.2855 15.8098 12.2737 15.561 12.2608C15.9632 12.0175 17.4642 11.8914 18.2886 12.0214Z" fill="white"/>
<path d="M16.9684 11.5149C16.971 11.5023 16.9735 11.4896 16.976 11.477C17.0893 11.4561 17.2017 11.4288 17.316 11.4153C17.6998 11.3697 18.0822 11.3967 18.4627 11.4521C18.9424 11.522 19.4142 11.6233 19.8581 11.8225C20.1881 11.9706 20.4375 12.1964 20.5697 12.5349C20.5798 12.5608 20.6169 12.584 20.6466 12.594C20.747 12.628 20.8493 12.6564 20.9513 12.6849C20.9771 12.6921 21.0055 12.6973 21.0317 12.6944C21.2535 12.6706 21.4743 12.6361 21.6966 12.6209C22.1442 12.5902 22.5897 12.5969 23.0169 12.759C23.3669 12.8916 23.6396 13.1033 23.7585 13.4661C23.8458 13.7328 23.838 14.0052 23.7913 14.277C23.7024 14.7924 23.5108 15.2751 23.288 15.7468C23.1251 16.092 22.9081 16.4006 22.5824 16.6172C22.2944 16.8088 21.9941 16.9827 21.6989 17.1638C21.6935 17.1671 21.6827 17.162 21.6714 17.1605C21.6754 17.1454 21.678 17.1338 21.6816 17.1224C21.741 16.9416 21.8103 16.7635 21.8577 16.5798C21.9198 16.3394 21.8156 16.1754 21.5668 16.1353C21.14 16.0666 20.7524 16.1834 20.3969 16.4121C20.3763 16.4253 20.3654 16.4762 20.3725 16.5038C20.4108 16.6492 20.4586 16.7922 20.4989 16.937C20.6666 17.541 20.9881 18.0412 21.519 18.4061C21.9765 18.7206 22.4853 18.9265 23.0124 19.0958C23.1571 19.1423 23.3031 19.1845 23.4496 19.2292C23.4597 19.2039 23.4668 19.1901 23.4707 19.1756C23.5173 19.0069 23.5677 18.8392 23.6088 18.6692C23.9286 17.3469 24.0674 16.0013 24.1119 14.6476C24.1409 13.7678 24.1198 12.8863 24.1155 12.0055C24.1144 11.7921 24.0912 11.5786 24.0781 11.3651C24.0515 11.3622 24.0361 11.3597 24.0207 11.359C22.943 11.3081 21.8694 11.2204 20.8066 11.0308C20.0079 10.8883 19.2241 10.6933 18.4639 10.4121C17.9073 10.206 17.3727 9.95605 16.8637 9.65057C16.8353 9.66691 16.8082 9.68229 16.7815 9.69799C16.1404 10.075 15.4591 10.3642 14.748 10.5884C13.3019 11.0442 11.8094 11.2337 10.3 11.3259C10.0844 11.3392 9.86879 11.3504 9.639 11.3634C9.50779 13.8298 9.57852 16.2739 10.1167 18.7091C10.151 18.6781 10.1671 18.6647 10.1822 18.6501C10.6486 18.1969 10.9551 17.6499 11.1742 17.0499C11.3486 16.5721 11.4352 16.0582 11.7778 15.6443C11.3145 15.7371 10.9364 15.5912 10.5929 15.2784C10.6458 15.2645 10.6809 15.2549 10.7162 15.2461C11.3054 15.0987 11.8524 14.8588 12.3184 14.4762C12.6833 14.1764 13.0248 13.8486 13.369 13.5254C13.8094 13.112 14.2809 12.7444 14.8498 12.5112C14.9378 12.475 15.027 12.4412 15.1157 12.4064C15.1146 12.4002 15.1136 12.3939 15.1125 12.3877C14.9658 12.395 14.8189 12.4022 14.6722 12.4095C14.6707 12.3984 14.6691 12.3874 14.6676 12.3765C14.6976 12.3557 14.7261 12.3319 14.7582 12.3148C14.984 12.1942 15.2042 12.061 15.4383 11.9584C15.9233 11.7457 16.4273 11.5968 16.9681 11.6168C17.0754 11.6208 17.1821 11.6399 17.2891 11.6521C17.2901 11.6492 17.291 11.6462 17.292 11.6433C17.1841 11.6005 17.0763 11.5577 16.9684 11.5149ZM24.3734 11.0919C24.391 11.5405 24.424 11.9816 24.4224 12.4229C24.4196 13.2727 24.4179 14.1234 24.3779 14.9721C24.32 16.1984 24.1813 17.4173 23.8938 18.6157C23.8255 18.9009 23.7402 19.1821 23.6588 19.4795C23.3655 19.3845 23.0881 19.2997 22.8143 19.2049C22.3661 19.0499 21.9344 18.8607 21.5398 18.5978C20.9807 18.2252 20.6066 17.7247 20.4234 17.0861C20.3653 16.883 20.2856 16.6855 20.2096 16.4878C20.1889 16.4342 20.1962 16.4043 20.2414 16.3724C20.6065 16.1162 21.0078 15.9677 21.4628 15.9833C21.8366 15.996 22.042 16.2561 21.9595 16.6135C21.9357 16.7163 21.8954 16.8155 21.8613 16.9206C22.3774 16.6377 22.8468 16.3163 23.1141 15.772C23.341 15.3102 23.5327 14.8405 23.6016 14.33C23.6377 14.0628 23.6337 13.7974 23.5314 13.5411C23.3539 13.0956 22.999 12.876 22.5344 12.7979C22.1174 12.7278 21.701 12.7618 21.2849 12.8074C21.1695 12.8201 21.0546 12.8378 20.939 12.8494C20.9137 12.852 20.8845 12.8431 20.8607 12.8322C20.742 12.7771 20.6239 12.7209 20.5072 12.6622C20.4794 12.6483 20.444 12.6277 20.4351 12.6024C20.3697 12.4162 20.2348 12.2864 20.0795 12.1725C19.7744 11.9487 19.419 11.8382 19.0571 11.7426C18.5422 11.6068 18.0197 11.5251 17.4851 11.5285C17.4269 11.5288 17.3689 11.5347 17.2877 11.5393C17.3995 11.6144 17.4907 11.6756 17.5818 11.7369C17.5797 11.7468 17.5775 11.7568 17.5754 11.7667C17.5385 11.7727 17.5014 11.7848 17.4647 11.7837C17.2794 11.7784 17.0941 11.7613 16.909 11.7638C16.2752 11.7721 15.6865 11.957 15.1177 12.2144C15.0787 12.2321 15.0408 12.2519 14.9859 12.2787C15.1475 12.3028 15.299 12.2993 15.4234 12.4053C15.2797 12.4528 15.1393 12.492 15.0047 12.5452C14.4672 12.7576 14.0307 13.1108 13.6204 13.4999C13.2958 13.8078 12.9791 14.1242 12.6421 14.4186C12.1558 14.8436 11.5915 15.1408 10.9661 15.3259C10.9482 15.3312 10.931 15.3391 10.8865 15.3559C10.9648 15.3995 11.0238 15.4424 11.0901 15.4674C11.3089 15.5505 11.5374 15.5561 11.7683 15.5348C11.8459 15.5276 11.924 15.5257 12.001 15.5215C12.0034 15.5363 12.0073 15.5449 12.0047 15.5473C11.7278 15.8185 11.5813 16.1564 11.475 16.5173C11.3064 17.09 11.1018 17.6491 10.7771 18.159C10.5565 18.5053 10.2887 18.8114 9.95064 19.0821C9.90372 18.9001 9.85624 18.7308 9.81647 18.5596C9.61498 17.691 9.49545 16.8105 9.41537 15.924C9.31534 14.8162 9.27216 13.7065 9.29507 12.5949C9.30498 12.1104 9.33759 11.6262 9.36006 11.1419C9.36072 11.1269 9.36381 11.1121 9.36667 11.0909C9.49567 11.0833 9.62346 11.0745 9.75136 11.0683C10.9138 11.0114 12.0688 10.8942 13.2092 10.6611C14.4771 10.4021 15.6914 10.0033 16.8071 9.34637C16.834 9.33046 16.8871 9.3282 16.9132 9.34358C17.9289 9.94175 19.0291 10.3274 20.1796 10.5883C21.0777 10.7919 21.9873 10.9219 22.9056 10.9937C23.3723 11.0301 23.8399 11.0549 24.3071 11.0851C24.3224 11.0861 24.3376 11.0881 24.3734 11.0919Z" fill="white"/>
<path d="M20.017 13.6649C20.0251 13.6699 20.0334 13.6749 20.0416 13.6799C20.0869 13.5913 20.138 13.505 20.1733 13.4127C20.1821 13.3896 20.1465 13.3271 20.1192 13.3183C20.0185 13.2859 19.7894 13.424 19.7577 13.5205C19.819 13.4951 19.8832 13.461 19.9517 13.4421C20.0329 13.4197 20.074 13.4566 20.0622 13.5382C20.056 13.5817 20.0327 13.6227 20.017 13.6649ZM20.4751 13.5093C20.6091 13.4009 20.7115 13.2828 20.7778 13.1345C20.7888 13.11 20.8197 13.08 20.8442 13.0776C21.3642 13.0249 21.8864 13.0056 22.4066 13.059C23.0015 13.12 23.3849 13.5375 23.3814 14.1199C23.3769 14.8292 23.2086 15.4934 22.7517 16.065C22.6055 16.248 22.4259 16.3955 22.2198 16.5176C22.2597 16.3808 22.3079 16.2497 22.3355 16.1146C22.399 15.8052 22.2686 15.5606 21.9741 15.433C21.7157 15.3209 21.4376 15.2747 21.1597 15.2524C20.8156 15.2248 20.4695 15.2189 20.1241 15.2124C20.0185 15.2105 19.9122 15.2377 19.8062 15.2517C19.8068 15.2641 19.8073 15.2768 19.8079 15.2893C19.933 15.302 20.0582 15.3147 20.1834 15.3273C19.6531 15.4075 19.1425 15.5485 18.6719 15.7653C18.8257 15.585 18.9963 15.3997 19.1491 15.2014C19.3069 14.997 19.4016 14.7642 19.4045 14.5011C19.4754 14.5868 19.4994 14.7023 19.5211 15.0737C19.5899 14.9965 19.6106 14.9198 19.6094 14.8389C19.6045 14.5362 19.5101 14.2592 19.3349 14.0114C19.2956 13.9559 19.2981 13.9194 19.3214 13.8638C19.3809 13.7225 19.4582 13.5819 19.48 13.4341C19.4989 13.3075 19.5503 13.2449 19.6594 13.1941C19.778 13.1389 19.8641 13.0446 19.9285 12.9312C19.9431 12.9054 19.9766 12.8736 20.0023 12.8727C20.1324 12.8688 20.2677 12.8532 20.3919 12.881C20.5751 12.9223 20.6519 13.0755 20.5966 13.2528C20.57 13.338 20.5201 13.4162 20.4751 13.5093Z" fill="white"/>
<path d="M18.9023 15.9589C19.1676 15.8177 19.4526 15.7363 19.7428 15.6697C20.1972 15.5655 20.657 15.5074 21.1246 15.528C21.3483 15.538 21.5697 15.567 21.7759 15.6578C21.8622 15.6958 21.9415 15.749 22.0195 15.8034C21.3492 15.6159 20.7379 15.7972 20.1457 16.0788C20.0241 16.1365 19.9328 16.1538 19.8039 16.0916C19.5221 15.9553 19.2166 15.922 18.9023 15.9589Z" fill="white"/>
<path d="M18.0312 13.1839C18.1157 13.1703 18.1945 13.1578 18.2835 13.1436C18.2745 13.3331 18.3025 13.5057 18.4938 13.5812C18.6746 13.6526 18.8372 13.5915 18.9761 13.4602C18.969 13.6306 18.757 13.81 18.4733 13.7468C18.2328 13.6931 18.0682 13.4853 18.0312 13.1839Z" fill="white"/>
<path d="M18.9109 13.3319C18.8723 13.3576 18.8362 13.3987 18.7944 13.4056C18.7296 13.4163 18.6866 13.3726 18.6875 13.3068C18.6884 13.2412 18.734 13.1982 18.7967 13.2087C18.8383 13.2158 18.8732 13.2607 18.9113 13.2885C18.9111 13.3029 18.911 13.3174 18.9109 13.3319Z" fill="white"/>
<path d="M16.9684 11.5152C17.0762 11.558 17.1841 11.6008 17.2919 11.6436C17.2909 11.6465 17.29 11.6495 17.289 11.6524C17.1821 11.6402 17.0753 11.6211 16.968 11.6171C16.4272 11.5971 15.9233 11.7461 15.4382 11.9587C15.2041 12.0613 14.9839 12.1945 14.7582 12.3151C14.726 12.3322 14.6976 12.3561 14.6675 12.3768C14.6691 12.3878 14.6706 12.3987 14.6721 12.4098C14.8189 12.4025 14.9657 12.3953 15.1125 12.388C15.1136 12.3942 15.1146 12.4006 15.1157 12.4067C15.027 12.4415 14.9377 12.4753 14.8497 12.5115C14.2808 12.7448 13.8094 13.1123 13.3689 13.5257C13.0248 13.849 12.6833 14.1767 12.3183 14.4765C11.8523 14.8592 11.3054 15.0991 10.7161 15.2464C10.6809 15.2552 10.6457 15.2649 10.5928 15.2787C10.9363 15.5915 11.3144 15.7374 11.7777 15.6447C11.4351 16.0585 11.3485 16.5724 11.1742 17.0502C10.955 17.6502 10.6486 18.1972 10.1822 18.6505C10.1671 18.665 10.151 18.6784 10.1166 18.7094C9.57846 16.2742 9.50774 13.8301 9.63894 11.3637C9.86874 11.3507 10.0843 11.3395 10.2999 11.3263C11.8094 11.234 13.3018 11.0445 14.7479 10.5887C15.459 10.3645 16.1404 10.0753 16.7814 9.69831C16.8082 9.68261 16.8353 9.66723 16.8636 9.65089C17.3727 9.95637 17.9073 10.2064 18.4638 10.4124C19.224 10.6936 20.0078 10.8886 20.8065 11.0311C21.8694 11.2207 22.9429 11.3084 24.0206 11.3593C24.036 11.36 24.0515 11.3625 24.078 11.3654C24.0911 11.579 24.1144 11.7924 24.1155 12.0058C24.1198 12.8866 24.1408 13.7681 24.1118 14.6479C24.0673 16.0016 23.9285 17.3472 23.6087 18.6695C23.5676 18.8395 23.5173 19.0072 23.4707 19.1759C23.4667 19.1905 23.4597 19.2042 23.4495 19.2295C23.303 19.1849 23.1571 19.1426 23.0123 19.0962C22.4853 18.9268 21.9764 18.7209 21.5189 18.4064C20.9881 18.0415 20.6665 17.5413 20.4988 16.9373C20.4585 16.7925 20.4107 16.6495 20.3725 16.5041C20.3653 16.4765 20.3762 16.4256 20.3968 16.4124C20.7523 16.1837 21.14 16.0669 21.5668 16.1356C21.8155 16.1757 21.9197 16.3397 21.8577 16.5801C21.8102 16.7638 21.7409 16.942 21.6815 17.1227C21.6779 17.1341 21.6754 17.1457 21.6713 17.1608C21.6826 17.1623 21.6934 17.1674 21.6988 17.1641C21.9941 16.983 22.2944 16.8092 22.5823 16.6176C22.9081 16.4009 23.125 16.0923 23.2879 15.7471C23.5108 15.2754 23.7024 14.7927 23.7913 14.2773C23.838 14.0055 23.8458 13.7331 23.7584 13.4664C23.6396 13.1036 23.3668 12.892 23.0168 12.7593C22.5896 12.5972 22.1441 12.5906 21.6965 12.6212C21.4742 12.6364 21.2535 12.6709 21.0317 12.6948C21.0055 12.6977 20.9771 12.6924 20.9513 12.6852C20.8493 12.6567 20.7469 12.6283 20.6466 12.5943C20.6168 12.5843 20.5797 12.5611 20.5697 12.5352C20.4375 12.1967 20.1881 11.9709 19.858 11.8228C19.4142 11.6236 18.9424 11.5223 18.4626 11.4524C18.0821 11.397 17.6997 11.37 17.3159 11.4156C17.2017 11.4292 17.0892 11.4564 16.976 11.4773C16.9734 11.4899 16.9709 11.5026 16.9684 11.5152Z" fill="#2E3080"/>
<path d="M20.017 13.6646C20.0328 13.6225 20.056 13.5814 20.0623 13.538C20.0741 13.4564 20.033 13.4195 19.9518 13.4418C19.8833 13.4608 19.8191 13.4949 19.7578 13.5202C19.7894 13.4238 20.0186 13.2856 20.1193 13.3181C20.1466 13.3269 20.1822 13.3894 20.1733 13.4125C20.1381 13.5047 20.087 13.5911 20.0417 13.6797C20.0334 13.6746 20.0252 13.6697 20.017 13.6646Z" fill="#EC1C2C"/>
<path d="M18.9233 9.30818L16.8826 8.28495L14.862 9.3457L15.2283 7.13506L13.5703 5.58721L15.8375 5.2442L16.8333 3.22667L17.8682 5.22528L20.1417 5.52635L18.5141 7.10463L18.9233 9.30818Z" fill="#2E3080"/>
<path d="M23.5921 8.64044L22.7349 8.21076L21.8863 8.65625L22.0402 7.72786L21.3438 7.07775L22.296 6.93367L22.7143 6.08625L23.1489 6.92571L24.1038 7.05216L23.4201 7.71496L23.5921 8.64044Z" fill="#EC1C2C"/>
<path d="M11.8654 8.64044L11.0083 8.21076L10.1597 8.65625L10.3136 7.72786L9.61719 7.07775L10.5694 6.93367L10.9876 6.08625L11.4222 6.92571L12.3771 7.05216L11.6935 7.71496L11.8654 8.64044Z" fill="#EC1C2C"/>
<path d="M20.0818 28.0645C20.0536 28.3704 20.0324 28.6644 20.0183 28.9463C20.0113 29.2283 20.0077 29.4442 20.0077 29.5942C20.0077 29.7262 20.0113 29.8522 20.0183 29.9721C20.0254 30.0921 20.0324 30.1941 20.0395 30.2781H19.7962C19.6833 29.7742 19.5388 29.3752 19.3624 29.0813C19.1932 28.7873 18.9887 28.5804 18.7489 28.4604C18.5091 28.3344 18.227 28.2714 17.9026 28.2714H17.6593V33.4096C17.6593 33.6495 17.6875 33.8295 17.7439 33.9495C17.8074 34.0695 17.9202 34.1505 18.0824 34.1925C18.2446 34.2285 18.4809 34.2495 18.7912 34.2555V34.4354C18.5726 34.4294 18.2799 34.4234 17.9131 34.4174C17.5535 34.4114 17.1762 34.4084 16.7812 34.4084C16.3933 34.4084 16.0266 34.4114 15.681 34.4174C15.3354 34.4234 15.0569 34.4294 14.8453 34.4354V34.2555C15.1627 34.2495 15.4024 34.2285 15.5647 34.1925C15.7269 34.1505 15.8362 34.0695 15.8926 33.9495C15.949 33.8295 15.9772 33.6495 15.9772 33.4096V28.2714H15.7445C15.4201 28.2714 15.138 28.3344 14.8982 28.4604C14.6584 28.5804 14.4539 28.7873 14.2846 29.0813C14.1154 29.3692 13.9673 29.7682 13.8403 30.2781H13.597C13.6111 30.1941 13.6182 30.0921 13.6182 29.9721C13.6252 29.8522 13.6287 29.7262 13.6287 29.5942C13.6287 29.4442 13.6217 29.2283 13.6076 28.9463C13.6005 28.6644 13.5829 28.3704 13.5547 28.0645C13.8791 28.0705 14.2317 28.0765 14.6126 28.0824C15.0005 28.0884 15.3883 28.0914 15.7762 28.0914C16.1641 28.0914 16.5132 28.0914 16.8235 28.0914C17.1409 28.0914 17.49 28.0914 17.8708 28.0914C18.2587 28.0914 18.6466 28.0884 19.0345 28.0824C19.4224 28.0765 19.7715 28.0705 20.0818 28.0645Z" fill="#EC1C2C"/>
<path d="M20.0818 28.0645C20.0536 28.3704 20.0324 28.6644 20.0183 28.9463C20.0113 29.2283 20.0077 29.4442 20.0077 29.5942C20.0077 29.7262 20.0113 29.8522 20.0183 29.9721C20.0254 30.0921 20.0324 30.1941 20.0395 30.2781H19.7962C19.6833 29.7742 19.5388 29.3752 19.3624 29.0813C19.1932 28.7873 18.9887 28.5804 18.7489 28.4604C18.5091 28.3344 18.227 28.2714 17.9026 28.2714H17.6593V33.4096C17.6593 33.6495 17.6875 33.8295 17.7439 33.9495C17.8074 34.0695 17.9202 34.1505 18.0824 34.1925C18.2446 34.2285 18.4809 34.2495 18.7912 34.2555V34.4354C18.5726 34.4294 18.2799 34.4234 17.9131 34.4174C17.5535 34.4114 17.1762 34.4084 16.7812 34.4084C16.3933 34.4084 16.0266 34.4114 15.681 34.4174C15.3354 34.4234 15.0569 34.4294 14.8453 34.4354V34.2555C15.1627 34.2495 15.4024 34.2285 15.5647 34.1925C15.7269 34.1505 15.8362 34.0695 15.8926 33.9495C15.949 33.8295 15.9772 33.6495 15.9772 33.4096V28.2714H15.7445C15.4201 28.2714 15.138 28.3344 14.8982 28.4604C14.6584 28.5804 14.4539 28.7873 14.2846 29.0813C14.1154 29.3692 13.9673 29.7682 13.8403 30.2781H13.597C13.6111 30.1941 13.6182 30.0921 13.6182 29.9721C13.6252 29.8522 13.6287 29.7262 13.6287 29.5942C13.6287 29.4442 13.6217 29.2283 13.6076 28.9463C13.6005 28.6644 13.5829 28.3704 13.5547 28.0645C13.8791 28.0705 14.2317 28.0765 14.6126 28.0824C15.0005 28.0884 15.3883 28.0914 15.7762 28.0914C16.1641 28.0914 16.5132 28.0914 16.8235 28.0914C17.1409 28.0914 17.49 28.0914 17.8708 28.0914C18.2587 28.0914 18.6466 28.0884 19.0345 28.0824C19.4224 28.0765 19.7715 28.0705 20.0818 28.0645Z" fill="#EC1C2C"/>
<path d="M20.0818 28.0645C20.0536 28.3704 20.0324 28.6644 20.0183 28.9463C20.0113 29.2283 20.0077 29.4442 20.0077 29.5942C20.0077 29.7262 20.0113 29.8522 20.0183 29.9721C20.0254 30.0921 20.0324 30.1941 20.0395 30.2781H19.7962C19.6833 29.7742 19.5388 29.3752 19.3624 29.0813C19.1932 28.7873 18.9887 28.5804 18.7489 28.4604C18.5091 28.3344 18.227 28.2714 17.9026 28.2714H17.6593V33.4096C17.6593 33.6495 17.6875 33.8295 17.7439 33.9495C17.8074 34.0695 17.9202 34.1505 18.0824 34.1925C18.2446 34.2285 18.4809 34.2495 18.7912 34.2555V34.4354C18.5726 34.4294 18.2799 34.4234 17.9131 34.4174C17.5535 34.4114 17.1762 34.4084 16.7812 34.4084C16.3933 34.4084 16.0266 34.4114 15.681 34.4174C15.3354 34.4234 15.0569 34.4294 14.8453 34.4354V34.2555C15.1627 34.2495 15.4024 34.2285 15.5647 34.1925C15.7269 34.1505 15.8362 34.0695 15.8926 33.9495C15.949 33.8295 15.9772 33.6495 15.9772 33.4096V28.2714H15.7445C15.4201 28.2714 15.138 28.3344 14.8982 28.4604C14.6584 28.5804 14.4539 28.7873 14.2846 29.0813C14.1154 29.3692 13.9673 29.7682 13.8403 30.2781H13.597C13.6111 30.1941 13.6182 30.0921 13.6182 29.9721C13.6252 29.8522 13.6287 29.7262 13.6287 29.5942C13.6287 29.4442 13.6217 29.2283 13.6076 28.9463C13.6005 28.6644 13.5829 28.3704 13.5547 28.0645C13.8791 28.0705 14.2317 28.0765 14.6126 28.0824C15.0005 28.0884 15.3883 28.0914 15.7762 28.0914C16.1641 28.0914 16.5132 28.0914 16.8235 28.0914C17.1409 28.0914 17.49 28.0914 17.8708 28.0914C18.2587 28.0914 18.6466 28.0884 19.0345 28.0824C19.4224 28.0765 19.7715 28.0705 20.0818 28.0645Z" fill="#EC1C2C"/>
<path d="M20.4961 28.0645C20.6606 28.0705 20.8811 28.0765 21.1574 28.0825C21.4404 28.0886 21.7201 28.0916 21.9964 28.0916C22.3123 28.0916 22.6183 28.0886 22.9144 28.0825C23.2105 28.0765 23.4211 28.0735 23.5462 28.0735C24.4608 28.0735 25.1452 28.2122 25.5993 28.4897C26.0533 28.7611 26.2803 29.1471 26.2803 29.6478C26.2803 29.8528 26.2343 30.0609 26.1422 30.272C26.05 30.4771 25.8921 30.6701 25.6684 30.8511C25.4512 31.026 25.1518 31.1677 24.7701 31.2763C24.3885 31.3788 23.9081 31.4301 23.329 31.4301H22.3814V31.2492H23.2303C23.6185 31.2492 23.9114 31.1828 24.1088 31.0501C24.3128 30.9114 24.451 30.7304 24.5234 30.5073C24.6023 30.2781 24.6418 30.0247 24.6418 29.7473C24.6418 29.2708 24.5497 28.9028 24.3654 28.6435C24.1812 28.3781 23.8653 28.2454 23.4178 28.2454C23.1612 28.2454 22.9934 28.2967 22.9144 28.3992C22.842 28.5017 22.8058 28.7098 22.8058 29.0235V33.511C22.8058 33.7282 22.8223 33.891 22.8552 33.9996C22.8947 34.1082 22.9671 34.1805 23.0724 34.2167C23.1776 34.2529 23.3356 34.277 23.5462 34.2891V34.47C23.3685 34.458 23.1447 34.452 22.8749 34.452C22.6051 34.4459 22.332 34.4429 22.0557 34.4429C21.7398 34.4429 21.4404 34.4459 21.1574 34.452C20.8811 34.452 20.6606 34.458 20.4961 34.47V34.2891C20.7067 34.277 20.8646 34.2529 20.9699 34.2167C21.0752 34.1805 21.1443 34.1082 21.1772 33.9996C21.2167 33.891 21.2364 33.7282 21.2364 33.511V29.0235C21.2364 28.8003 21.2167 28.6375 21.1772 28.5349C21.1443 28.4264 21.0719 28.354 20.96 28.3178C20.8547 28.2756 20.7001 28.2514 20.4961 28.2454V28.0645ZM22.3617 31.2763C22.6446 31.2823 22.8881 31.2944 23.0921 31.3125C23.3027 31.3306 23.4869 31.3487 23.6449 31.3668C23.8028 31.3788 23.9443 31.3879 24.0693 31.3939C24.6681 31.4422 25.109 31.5598 25.392 31.7468C25.6815 31.9337 25.8691 32.2142 25.9546 32.5882L26.1816 33.5201C26.2409 33.7613 26.3034 33.9302 26.3692 34.0267C26.435 34.1232 26.5304 34.1715 26.6554 34.1715C26.741 34.1654 26.8101 34.1474 26.8627 34.1172C26.9219 34.081 26.9845 34.0297 27.0503 33.9634L27.1884 34.072C27.0108 34.2589 26.8199 34.3916 26.6159 34.47C26.412 34.5545 26.1652 34.5967 25.8756 34.5967C25.5203 34.5967 25.2275 34.5273 24.9971 34.3886C24.7668 34.2499 24.6155 33.9935 24.5431 33.6196L24.3654 32.7148C24.3194 32.4615 24.2634 32.2414 24.1976 32.0544C24.1318 31.8614 24.0397 31.7106 23.9212 31.602C23.8094 31.4874 23.6514 31.4301 23.4474 31.4301H22.3814L22.3617 31.2763Z" fill="#EC1C2C"/>
<path d="M12.9806 28.0645V28.2454C12.7648 28.2514 12.5996 28.2756 12.485 28.3178C12.3771 28.354 12.3063 28.4264 12.2726 28.5349C12.2389 28.6375 12.2221 28.8003 12.2221 29.0235V33.511C12.2221 33.7282 12.2389 33.891 12.2726 33.9996C12.3131 34.1082 12.3873 34.1805 12.4951 34.2167C12.603 34.2529 12.7648 34.277 12.9806 34.2891V34.47C12.7985 34.458 12.5693 34.452 12.2929 34.452C12.0164 34.4459 11.7366 34.4429 11.4534 34.4429C11.123 34.4429 10.8163 34.4459 10.5331 34.452C10.2566 34.452 10.0308 34.458 9.85547 34.47V34.2891C10.0712 34.277 10.233 34.2529 10.3409 34.2167C10.4488 34.1805 10.5196 34.1082 10.5533 33.9996C10.5938 33.891 10.614 33.7282 10.614 33.511V29.0235C10.614 28.8003 10.5938 28.6375 10.5533 28.5349C10.5196 28.4264 10.4454 28.354 10.3308 28.3178C10.2229 28.2756 10.0645 28.2514 9.85547 28.2454V28.0645C10.0308 28.0705 10.2566 28.0765 10.5331 28.0825C10.8163 28.0886 11.123 28.0916 11.4534 28.0916C11.7366 28.0916 12.0164 28.0886 12.2929 28.0825C12.5693 28.0765 12.7985 28.0705 12.9806 28.0645Z" fill="#EC1C2C"/>
<path d="M29.9599 28.0645C30.5298 28.0645 31.027 28.1917 31.4517 28.4461C31.8817 28.7005 32.215 29.0674 32.4516 29.5466C32.6881 30.02 32.8064 30.5969 32.8064 31.2773C32.8064 31.94 32.6854 32.5199 32.4435 33.0169C32.2016 33.5139 31.8629 33.9015 31.4275 34.1796C30.9974 34.4577 30.5056 34.5967 29.9519 34.5967C29.3821 34.5967 28.8821 34.4695 28.4521 34.2151C28.0274 33.9606 27.6968 33.5938 27.4603 33.1145C27.2237 32.6353 27.1055 32.0584 27.1055 31.3838C27.1055 30.7211 27.2264 30.1413 27.4683 29.6443C27.7156 29.1472 28.0516 28.7597 28.4763 28.4816C28.9063 28.2035 29.4009 28.0645 29.9599 28.0645ZM29.9277 28.2242C29.6267 28.2242 29.3632 28.3573 29.1375 28.6236C28.9171 28.8899 28.745 29.2567 28.6214 29.7241C28.5031 30.1916 28.444 30.733 28.444 31.3483C28.444 31.9755 28.5112 32.5228 28.6456 32.9903C28.7854 33.4518 28.9708 33.8098 29.202 34.0642C29.4385 34.3127 29.6992 34.437 29.9841 34.437C30.2852 34.437 30.5459 34.3038 30.7663 34.0376C30.9921 33.7713 31.1641 33.4045 31.2824 32.937C31.406 32.4637 31.4678 31.9223 31.4678 31.3128C31.4678 30.6797 31.3979 30.1324 31.2582 29.6709C31.1238 29.2094 30.9383 28.8544 30.7018 28.6059C30.4706 28.3514 30.2126 28.2242 29.9277 28.2242Z" fill="#EC1C2C"/>
<path d="M9.25781 28.0645V28.2462C9.02744 28.2704 8.85466 28.3219 8.73947 28.4007C8.62429 28.4734 8.5451 28.5915 8.5019 28.755C8.46591 28.9186 8.44791 29.1488 8.44791 29.4456V34.5161C8.36152 34.51 8.27153 34.507 8.17795 34.507C8.09156 34.507 7.99797 34.51 7.89718 34.5161L3.2106 29.5183V33.0077C3.2106 33.3408 3.2322 33.5983 3.2754 33.78C3.31859 33.9557 3.41218 34.0829 3.55616 34.1617C3.70734 34.2344 3.94131 34.2859 4.25807 34.3162V34.4979C4.12128 34.4858 3.94131 34.4797 3.71814 34.4797C3.49497 34.4737 3.28619 34.4706 3.09182 34.4706C2.92624 34.4706 2.75706 34.4737 2.58429 34.4797C2.41151 34.4797 2.26753 34.4858 2.15234 34.4979V34.3162C2.38271 34.2859 2.55549 34.2344 2.67068 34.1617C2.78586 34.089 2.86145 33.9709 2.89745 33.8073C2.94064 33.6377 2.96224 33.4075 2.96224 33.1167V29.0277C2.96224 28.8035 2.94064 28.6399 2.89745 28.537C2.86145 28.4279 2.78226 28.3552 2.65988 28.3189C2.54469 28.2765 2.37551 28.2522 2.15234 28.2462V28.0645C2.26753 28.0705 2.41151 28.0766 2.58429 28.0826C2.75706 28.0887 2.92624 28.0917 3.09182 28.0917C3.2646 28.0917 3.43017 28.0887 3.58855 28.0826C3.74693 28.0766 3.89091 28.0705 4.0205 28.0645L8.19954 32.3988V29.5547C8.19954 29.2215 8.17795 28.9671 8.13475 28.7914C8.09156 28.6097 7.99437 28.4794 7.84319 28.4007C7.69921 28.3219 7.46884 28.2704 7.15208 28.2462V28.0645C7.28886 28.0705 7.46884 28.0766 7.69201 28.0826C7.91518 28.0887 8.12395 28.0917 8.31833 28.0917C8.49111 28.0917 8.66028 28.0887 8.82586 28.0826C8.99864 28.0766 9.14262 28.0705 9.25781 28.0645Z" fill="#EC1C2C"/>
<path d="M4.97255 38.1304C4.97255 38.4349 4.8563 38.6749 4.62381 38.8502C4.39294 39.0256 4.07103 39.1133 3.65807 39.1133C3.27763 39.1133 2.94109 39.0456 2.64844 38.9102V38.2457C2.88906 38.3473 3.09229 38.4188 3.25812 38.4603C3.42558 38.5018 3.57841 38.5226 3.7166 38.5226C3.88243 38.5226 4.00925 38.4926 4.09704 38.4326C4.18646 38.3726 4.23117 38.2834 4.23117 38.165C4.23117 38.0988 4.21166 38.0404 4.17264 37.9896C4.13362 37.9373 4.07591 37.8874 3.99949 37.8397C3.92471 37.792 3.77107 37.7158 3.53857 37.6113C3.32071 37.5144 3.15732 37.4213 3.04839 37.3321C2.93946 37.2429 2.85248 37.139 2.78745 37.0206C2.72241 36.9022 2.6899 36.7637 2.6899 36.6053C2.6899 36.3069 2.79639 36.0723 3.00937 35.9016C3.22398 35.7309 3.51988 35.6455 3.89707 35.6455C4.08241 35.6455 4.25881 35.6663 4.42627 35.7078C4.59536 35.7493 4.77176 35.8078 4.95548 35.8832L4.7116 36.4392C4.52138 36.3654 4.36368 36.3138 4.23849 36.2846C4.11493 36.2554 3.99299 36.2408 3.87268 36.2408C3.72961 36.2408 3.61987 36.2723 3.54345 36.3354C3.46704 36.3984 3.42883 36.4807 3.42883 36.5822C3.42883 36.6453 3.44428 36.7007 3.47517 36.7484C3.50606 36.7945 3.55483 36.8399 3.62149 36.8845C3.68978 36.9275 3.84992 37.006 4.10192 37.1198C4.43521 37.2706 4.66364 37.4221 4.7872 37.5743C4.91077 37.7251 4.97255 37.9104 4.97255 38.1304Z" fill="#2E3080"/>
<path d="M8.47134 39.0671H6.41793V35.694H8.47134V36.28H7.17394V37.0206H8.38111V37.6066H7.17394V38.4765H8.47134V39.0671Z" fill="#2E3080"/>
<path d="M11.5312 36.2408C11.2467 36.2408 11.0264 36.3423 10.8703 36.5453C10.7142 36.7468 10.6362 37.0283 10.6362 37.3898C10.6362 38.1419 10.9345 38.518 11.5312 38.518C11.7815 38.518 12.0848 38.4588 12.4408 38.3403V38.9402C12.1482 39.0556 11.8214 39.1133 11.4604 39.1133C10.9418 39.1133 10.5451 38.9648 10.2703 38.668C9.99558 38.3696 9.8582 37.942 9.8582 37.3851C9.8582 37.0345 9.92567 36.7276 10.0606 36.4646C10.1956 36.2 10.389 35.9977 10.641 35.8578C10.8947 35.7163 11.1914 35.6455 11.5312 35.6455C11.8775 35.6455 12.2254 35.7247 12.5749 35.8832L12.3311 36.4646C12.1978 36.4046 12.0636 36.3523 11.9287 36.3077C11.7937 36.2631 11.6612 36.2408 11.5312 36.2408Z" fill="#2E3080"/>
<path d="M16.9029 35.694V37.8766C16.9029 38.1258 16.8436 38.3442 16.7249 38.5318C16.6078 38.7195 16.4379 38.8633 16.2152 38.9633C15.9925 39.0633 15.7291 39.1133 15.425 39.1133C14.9666 39.1133 14.6105 39.0025 14.3569 38.781C14.1033 38.558 13.9764 38.2534 13.9764 37.8674V35.694H14.73V37.7589C14.73 38.0189 14.7853 38.2096 14.8958 38.3311C15.0064 38.4526 15.1893 38.5134 15.4446 38.5134C15.6917 38.5134 15.8705 38.4526 15.9811 38.3311C16.0933 38.2081 16.1493 38.0158 16.1493 37.7543V35.694H16.9029Z" fill="#2E3080"/>
<path d="M19.3311 37.1913H19.575C19.814 37.1913 19.9904 37.1537 20.1042 37.0783C20.218 37.0029 20.2749 36.8845 20.2749 36.723C20.2749 36.563 20.2164 36.4492 20.0993 36.3815C19.9839 36.3138 19.8042 36.28 19.5603 36.28H19.3311V37.1913ZM19.3311 37.7728V39.0671H18.5751V35.694H19.614C20.0985 35.694 20.457 35.7778 20.6895 35.9454C20.922 36.1116 21.0382 36.3646 21.0382 36.7045C21.0382 36.9029 20.9805 37.0798 20.8651 37.2352C20.7496 37.389 20.5862 37.5097 20.3749 37.5974C20.9114 38.3557 21.261 38.8456 21.4235 39.0671H20.5846L19.7335 37.7728H19.3311Z" fill="#2E3080"/>
<path d="M22.6714 39.0671V35.694H23.4274V39.0671H22.6714Z" fill="#2E3080"/>
<path d="M26.4994 39.0671H25.7434V36.2892H24.7752V35.694H27.4676V36.2892H26.4994V39.0671Z" fill="#2E3080"/>
<path d="M29.9251 37.0829L30.6689 35.694H31.4834L30.3006 37.7543V39.0671H29.5495V37.7774L28.3667 35.694H29.1861L29.9251 37.0829Z" fill="#2E3080"/>
</g>
<defs>
<clipPath id="clip0_18_154567">
<rect width="33" height="40" fill="white" transform="translate(0.5)"/>
</clipPath>
</defs>
</svg>
