<svg width="16" height="16" viewBox="0 0 16 16" fill="none" xmlns="http://www.w3.org/2000/svg">
<rect width="16" height="16" fill="white" fill-opacity="0.01"/>
<g clip-path="url(#clip0_787_167728)">
<rect width="14" height="14" transform="translate(1 1)" fill="white" fill-opacity="0.01"/>
<g clip-path="url(#clip1_787_167728)">
<path d="M11.275 10.0504C12.1223 8.89421 12.5018 7.46078 12.3376 6.03686C12.1733 4.61294 11.4775 3.30353 10.3893 2.37059C9.30114 1.43766 7.90082 0.950009 6.46852 1.0052C5.03622 1.06039 3.67757 1.65435 2.6644 2.66825C1.65122 3.68215 1.05823 5.04122 1.00407 6.47356C0.949902 7.9059 1.43856 9.30587 2.37227 10.3934C3.30598 11.4809 4.61589 12.1758 6.03993 12.339C7.46397 12.5022 8.89712 12.1217 10.0527 11.2736H10.0518C10.078 11.3086 10.106 11.3419 10.1375 11.3742L13.5063 14.743C13.6704 14.9072 13.8929 14.9994 14.125 14.9995C14.3572 14.9996 14.5798 14.9075 14.744 14.7434C14.9082 14.5793 15.0004 14.3568 15.0005 14.1247C15.0006 13.8926 14.9085 13.6699 14.7444 13.5057L11.3757 10.137C11.3444 10.1053 11.3107 10.0761 11.275 10.0495V10.0504ZM11.5008 6.68686C11.5008 7.31884 11.3763 7.94464 11.1345 8.52852C10.8926 9.1124 10.5381 9.64293 10.0912 10.0898C9.64435 10.5367 9.11383 10.8912 8.52995 11.133C7.94607 11.3749 7.32027 11.4994 6.68829 11.4994C6.0563 11.4994 5.4305 11.3749 4.84662 11.133C4.26274 10.8912 3.73222 10.5367 3.28533 10.0898C2.83845 9.64293 2.48397 9.1124 2.24212 8.52852C2.00026 7.94464 1.87579 7.31884 1.87579 6.68686C1.87579 5.4105 2.38282 4.18642 3.28533 3.2839C4.18785 2.38139 5.41193 1.87436 6.68829 1.87436C7.96464 1.87436 9.18872 2.38139 10.0912 3.2839C10.9938 4.18642 11.5008 5.4105 11.5008 6.68686Z" fill="#6C757D"/>
</g>
</g>
<defs>
<clipPath id="clip0_787_167728">
<rect width="14" height="14" fill="white" transform="translate(1 1)"/>
</clipPath>
<clipPath id="clip1_787_167728">
<rect width="14" height="14" fill="white" transform="translate(1 1)"/>
</clipPath>
</defs>
</svg>
