<svg xmlns:xlink="http://www.w3.org/1999/xlink" width="20" height="20" viewBox="0 0 24 24" fill="currentColor" xmlns="http://www.w3.org/2000/svg" class="ct-icon" data-testid="icon" style="min-width: 20px; min-height: 20px; color: currentcolor;"><path fill-rule="evenodd" clip-rule="evenodd" d="M16.675 14.537C15.625 16.2123 14.0667 17.9667 12 19.8C9.93333 17.9667 8.375 16.2123 7.325 14.537C6.275 12.8623 5.75 11.4167 5.75 10.2C5.75 8.3 6.354 6.75 7.562 5.55C8.77067 4.35 10.25 3.75 12 3.75C13.75 3.75 15.2293 4.35 16.438 5.55C17.646 6.75 18.25 8.3 18.25 10.2C18.25 11.4167 17.725 12.8623 16.675 14.537ZM11.65 21.4C11.7667 21.4333 11.8833 21.45 12 21.45C12.1167 21.45 12.2333 21.4333 12.35 21.4C12.4667 21.3667 12.575 21.3083 12.675 21.225C15.0417 19.075 16.8127 17.0833 17.988 15.25C19.1627 13.4167 19.75 11.7333 19.75 10.2C19.75 7.78333 18.971 5.854 17.413 4.412C15.8543 2.97067 14.05 2.25 12 2.25C9.95 2.25 8.146 2.97067 6.588 4.412C5.02933 5.854 4.25 7.78333 4.25 10.2C4.25 11.7333 4.83767 13.4167 6.013 15.25C7.18767 17.0833 8.95833 19.075 11.325 21.225C11.425 21.3083 11.5333 21.3667 11.65 21.4ZM12 11.75C12.4833 11.75 12.896 11.5793 13.238 11.238C13.5793 10.896 13.75 10.4833 13.75 10C13.75 9.51667 13.5793 9.104 13.238 8.762C12.896 8.42067 12.4833 8.25 12 8.25C11.5167 8.25 11.104 8.42067 10.762 8.762C10.4207 9.104 10.25 9.51667 10.25 10C10.25 10.4833 10.4207 10.896 10.762 11.238C11.104 11.5793 11.5167 11.75 12 11.75Z" fill="#203040"></path></svg>