<svg xmlns:xlink="http://www.w3.org/1999/xlink" width="20" height="20" viewBox="0 0 24 24" fill="currentColor" xmlns="http://www.w3.org/2000/svg" class="ct-icon" data-testid="icon" style="min-width: 20px; min-height: 20px; color: currentcolor;"><path d="M3.25009 9.9998C3.03342 9.9998 2.85442 9.9248 2.71309 9.7748C2.57109 9.6248 2.50842 9.4498 2.52509 9.2498C2.62509 8.13314 2.90842 7.06214 3.37509 6.0368C3.84175 5.01214 4.46675 4.0998 5.25009 3.2998C5.38342 3.16647 5.55842 3.0998 5.77509 3.0998C5.99175 3.0998 6.17509 3.1748 6.32509 3.3248C6.45842 3.45814 6.52942 3.6248 6.53809 3.8248C6.54609 4.0248 6.47509 4.20814 6.32509 4.3748C5.65842 5.04147 5.12942 5.78714 4.73809 6.6118C4.34609 7.43714 4.10842 8.31647 4.02509 9.2498C4.00842 9.46647 3.92942 9.64547 3.78809 9.7868C3.64609 9.9288 3.46675 9.9998 3.25009 9.9998ZM20.7501 9.9998C20.5501 9.9998 20.3751 9.9288 20.2251 9.7868C20.0751 9.64547 19.9918 9.46647 19.9751 9.2498C19.8918 8.31647 19.6544 7.43714 19.2631 6.6118C18.8711 5.78714 18.3418 5.04147 17.6751 4.3748C17.5418 4.20814 17.4751 4.0248 17.4751 3.8248C17.4751 3.6248 17.5501 3.45814 17.7001 3.3248C17.8501 3.1748 18.0294 3.0998 18.2381 3.0998C18.4461 3.0998 18.6168 3.16647 18.7501 3.2998C19.5334 4.0998 20.1584 5.01214 20.6251 6.0368C21.0918 7.06214 21.3751 8.13314 21.4751 9.2498C21.4918 9.4498 21.4294 9.6248 21.2881 9.7748C21.1461 9.9248 20.9668 9.9998 20.7501 9.9998ZM5.00009 18.8748C4.78342 18.8748 4.60442 18.7998 4.46309 18.6498C4.32109 18.4998 4.25009 18.3248 4.25009 18.1248C4.25009 17.9081 4.32109 17.7288 4.46309 17.5868C4.60442 17.4455 4.78342 17.3748 5.00009 17.3748H6.25009V10.1248C6.25009 8.79147 6.66675 7.59547 7.50009 6.5368C8.33342 5.47881 9.41675 4.7998 10.7501 4.4998V3.7998C10.7501 3.4498 10.8711 3.1538 11.1131 2.9118C11.3544 2.67047 11.6501 2.5498 12.0001 2.5498C12.3501 2.5498 12.6458 2.67047 12.8871 2.9118C13.1291 3.1538 13.2501 3.4498 13.2501 3.7998V4.4998C14.5834 4.7998 15.6668 5.47881 16.5001 6.5368C17.3334 7.59547 17.7501 8.79147 17.7501 10.1248V17.3748H19.0001C19.2168 17.3748 19.3961 17.4455 19.5381 17.5868C19.6794 17.7288 19.7501 17.9081 19.7501 18.1248C19.7501 18.3248 19.6794 18.4998 19.5381 18.6498C19.3961 18.7998 19.2168 18.8748 19.0001 18.8748H5.00009ZM12.0001 21.7998C11.5001 21.7998 11.0751 21.6248 10.7251 21.2748C10.3751 20.9248 10.2001 20.4998 10.2001 19.9998H13.8001C13.8001 20.4998 13.6251 20.9248 13.2751 21.2748C12.9251 21.6248 12.5001 21.7998 12.0001 21.7998ZM7.75009 17.3748H16.2501V10.1248C16.2501 8.94147 15.8334 7.93714 15.0001 7.1118C14.1668 6.28714 13.1668 5.8748 12.0001 5.8748C10.8334 5.8748 9.83342 6.28714 9.00009 7.1118C8.16675 7.93714 7.75009 8.94147 7.75009 10.1248V17.3748Z" fill="#203040"></path></svg>