<svg xmlns:xlink="http://www.w3.org/1999/xlink" width="20" height="20" viewBox="0 0 24 24" fill="currentColor" xmlns="http://www.w3.org/2000/svg" class="ct-icon" data-testid="icon" style="min-width: 20px; min-height: 20px; color: currentcolor;"><path d="M18.6499 21.4748C18.5332 21.4748 18.4249 21.4541 18.3249 21.4128C18.2249 21.3708 18.1249 21.3081 18.0249 21.2248L12.7499 15.9498V15.1498L15.1249 12.7998H15.8999L21.1749 18.0748C21.2749 18.1581 21.3416 18.2538 21.3749 18.3618C21.4082 18.4705 21.4249 18.5831 21.4249 18.6998C21.4249 18.8331 21.4082 18.9498 21.3749 19.0498C21.3416 19.1498 21.2749 19.2498 21.1749 19.3498L19.2999 21.2248C19.1999 21.3081 19.0999 21.3708 18.9999 21.4128C18.8999 21.4541 18.7832 21.4748 18.6499 21.4748ZM18.6499 19.7748L19.7249 18.6998L15.1749 14.1498L14.0999 15.2248L18.6499 19.7748ZM5.3249 21.4998C5.19157 21.4998 5.0709 21.4748 4.9629 21.4248C4.85424 21.3748 4.75824 21.3081 4.6749 21.2248L2.7999 19.3498C2.6999 19.2498 2.62924 19.1458 2.5879 19.0378C2.5459 18.9291 2.5249 18.8165 2.5249 18.6998C2.5249 18.5831 2.5459 18.4705 2.5879 18.3618C2.62924 18.2538 2.6999 18.1498 2.7999 18.0498L8.0249 12.8248H10.1249L10.9249 12.0248L6.7499 7.8498H5.3249L2.5499 5.0748L5.0249 2.5998L7.7999 5.3748V6.7998L11.9749 10.9748L14.9499 8.0248L13.4749 6.5498L14.7499 5.2998H12.1999L11.6499 4.7498L14.8499 1.5498L15.3749 2.0998V4.6498L16.6499 3.3748L20.4249 7.1248C20.6916 7.39147 20.8876 7.69147 21.0129 8.0248C21.1376 8.35814 21.1999 8.6998 21.1999 9.0498C21.1999 9.36647 21.1499 9.6748 21.0499 9.9748C20.9499 10.2748 20.7832 10.5498 20.5499 10.7998L18.4749 8.7248L17.0499 10.1248L15.9999 9.0748L11.1749 13.8998V16.0248L5.9499 21.2248C5.8499 21.3081 5.7499 21.3748 5.6499 21.4248C5.5499 21.4748 5.44157 21.4998 5.3249 21.4998ZM5.3249 19.7498L9.8999 15.1748L8.8499 14.0998L4.2499 18.6998L5.3249 19.7498Z" fill="#203040"></path></svg>