<svg xmlns:xlink="http://www.w3.org/1999/xlink" width="20" height="20" viewBox="0 0 24 24" fill="currentColor" xmlns="http://www.w3.org/2000/svg" class="ct-icon" data-testid="icon" style="min-width: 20px; min-height: 20px; color: currentcolor;"><path d="M5.34995 21.5C5.13328 21.5 4.95395 21.4293 4.81195 21.288C4.67062 21.146 4.59995 20.9667 4.59995 20.75C4.59995 20.5333 4.67062 20.354 4.81195 20.212C4.95395 20.0707 5.13328 20 5.34995 20H6.64995V17C6.64995 15.95 6.91662 14.975 7.44995 14.075C7.98328 13.175 8.70828 12.5 9.62495 12.05L9.49995 11.925C8.93328 11.625 8.44995 11.2417 8.04995 10.775C7.64995 10.3083 7.32495 9.78333 7.07495 9.2L1.79995 3.925C1.64995 3.775 1.57495 3.6 1.57495 3.4C1.57495 3.2 1.64995 3.01667 1.79995 2.85C1.96662 2.7 2.14995 2.625 2.34995 2.625C2.54995 2.625 2.73328 2.7 2.89995 2.85L21.325 21.325C21.475 21.475 21.554 21.65 21.562 21.85C21.5706 22.05 21.4916 22.225 21.325 22.375C21.175 22.525 21 22.6 20.7999 22.6C20.5999 22.6 20.4249 22.525 20.275 22.375L19.375 21.5H5.34995ZM14.675 11.825L13.6 10.75C14.2666 10.4167 14.8083 9.91267 15.225 9.238C15.6416 8.56267 15.85 7.81667 15.85 7V4H8.14995V5.3L7.19995 4.35V4H6.84995L5.34995 2.5H18.65C18.8666 2.5 19.0459 2.57067 19.188 2.712C19.3293 2.854 19.4 3.03333 19.4 3.25C19.4 3.46667 19.3293 3.64567 19.188 3.787C19.0459 3.929 18.8666 4 18.65 4H17.35V7C17.35 8 17.1166 8.925 16.65 9.775C16.1833 10.625 15.525 11.3083 14.675 11.825ZM8.14995 20H15.85V17.975L10.95 13.075C10.1166 13.2917 9.44162 13.7667 8.92495 14.5C8.40829 15.2333 8.14995 16.0667 8.14995 17V20ZM17.35 20H18.375L17.35 18.95V20Z" fill="#203040"></path></svg>